<?xml version="1.0" encoding="utf-8"?>
<!-- Generator: Adobe Illustrator 24.0.0, SVG Export Plug-In . SVG Version: 6.00 Build 0)  -->
<svg version="1.1" id="Layer_1" xmlns="http://www.w3.org/2000/svg" xmlns:xlink="http://www.w3.org/1999/xlink" x="0px" y="0px"
	 viewBox="0 0 960 560" style="enable-background:new 0 0 960 560;" xml:space="preserve">
<style type="text/css">
	.st0{fill:#FF975C;}
	.st1{fill:#F0C987;}
	.st2{fill:#FFFFFF;}
	.st3{fill:#DB4C40;}
	.st4{fill:#A29500;}
</style>
<rect x="118.9" y="102.76" class="st0" width="26.53" height="220.41"/>
<rect x="118.9" y="297.65" class="st0" width="620.41" height="25.51"/>
<ellipse class="st1" cx="233.18" cy="212.96" rx="87.76" ry="81.99"/>
<ellipse class="st2" cx="241.86" cy="195.61" rx="52.55" ry="45.92"/>
<rect x="332.8" y="101.73" class="st3" width="27.55" height="194.9"/>
<ellipse class="st4" cx="434.33" cy="224.18" rx="72.96" ry="68.88"/>
<ellipse class="st2" cx="449.51" cy="224.18" rx="39.8" ry="28.57"/>
<path class="st4" d="M505.63,213.47c0-3.38,0-6.12,0-6.12C505.63,210.73,505.63,213.47,505.63,213.47c0-3.38,0-6.12,0-6.12
	c0-34.97,0-63.27,0-63.27c0-25.94-50.2-46.94-112.24-46.94c0,15.79,0,28.57,0,28.57h6.12c-0.56,0-1.02,0-1.02,0
	c45.12,0,81.63,12.78,81.63,28.57c0.27,0,0.49,7.58,0.49,16.96"/>
<rect x="527.57" y="102.76" class="st3" width="24.49" height="194.9"/>
<path class="st3" d="M547.72,125.2c33.84,0,61.22,76.67,61.22,171.43h21.43c0-107.73-36.97-194.9-82.65-194.9"/>
<rect x="634.2" y="101.73" class="st1" width="23.47" height="194.9"/>
<rect x="657.67" y="195.46" class="st1" width="81.63" height="25.51"/>
<rect x="657.67" y="102.76" class="st1" width="81.63" height="23.47"/>
</svg>
